<?xml version="1.0" encoding="utf-8"?>
<!-- Generator: Adobe Illustrator 19.0.0, SVG Export Plug-In . SVG Version: 6.00 Build 0)  -->
<svg version="1.1"
	 id="svg2337" xmlns:rdf="http://www.w3.org/1999/02/22-rdf-syntax-ns#" xmlns:svg="http://www.w3.org/2000/svg" xmlns:inkscape="http://www.inkscape.org/namespaces/inkscape" xmlns:sodipodi="http://inkscape.sourceforge.net/DTD/sodipodi-0.dtd" xmlns:cc="http://web.resource.org/cc/" xmlns:dc="http://purl.org/dc/elements/1.1/" sodipodi:docname="dice-prepared.svg" sodipodi:docbase="C:\Documents and Settings\Lion\Desktop" inkscape:version="0.42" sodipodi:version="0.32"
	 xmlns="http://www.w3.org/2000/svg" xmlns:xlink="http://www.w3.org/1999/xlink" x="0px" y="0px" viewBox="-265.5 376.4 78 78"
	 style="enable-background:new -265.5 376.4 78 78;" xml:space="preserve">
<style type="text/css">
	.st0{fill:#FFFFFF;stroke:#010101;stroke-width:3;}
	.st1{fill:#010101;stroke:#010101;stroke-width:3;}
</style>
<g id="g2294_2_" transform="matrix(0.500000,0.000000,0.000000,0.500000,-6.357147,42.00257)">
	<path id="rect2296_2_" class="st0" d="M-465.4,671.8h50c27.6,0,50,22.4,50,50v50c0,27.6-22.4,50-50,50h-50c-27.6,0-50-22.4-50-50
		v-50C-515.4,694.2-493,671.8-465.4,671.8z"/>
	
		<path id="path2298_2_" sodipodi:cx="325.00000" sodipodi:cy="227.36218" sodipodi:rx="12.500000" sodipodi:ry="12.500000" sodipodi:type="arc" class="st1" d="
		M-464.4,710.3c0,6.9-5.6,12.5-12.5,12.5s-12.5-5.6-12.5-12.5s5.6-12.5,12.5-12.5S-464.4,703.4-464.4,710.3z"/>
	
		<path id="path2300_2_" sodipodi:cx="325.00000" sodipodi:cy="227.36218" sodipodi:rx="12.500000" sodipodi:ry="12.500000" sodipodi:type="arc" class="st1" d="
		M-392.4,782.3c0,6.9-5.6,12.5-12.5,12.5s-12.5-5.6-12.5-12.5s5.6-12.5,12.5-12.5S-392.4,775.4-392.4,782.3z"/>
	
		<path id="path2302_2_" sodipodi:cx="325.00000" sodipodi:cy="227.36218" sodipodi:rx="12.500000" sodipodi:ry="12.500000" sodipodi:type="arc" class="st1" d="
		M-428.4,746.3c0,6.9-5.6,12.5-12.5,12.5s-12.5-5.6-12.5-12.5s5.6-12.5,12.5-12.5S-428.4,739.4-428.4,746.3z"/>
</g>
</svg>
