<?xml version="1.0" encoding="utf-8"?>
<!-- Generator: Adobe Illustrator 19.0.0, SVG Export Plug-In . SVG Version: 6.00 Build 0)  -->
<svg version="1.1"
	 id="svg2337" xmlns:rdf="http://www.w3.org/1999/02/22-rdf-syntax-ns#" xmlns:svg="http://www.w3.org/2000/svg" xmlns:inkscape="http://www.inkscape.org/namespaces/inkscape" xmlns:sodipodi="http://inkscape.sourceforge.net/DTD/sodipodi-0.dtd" xmlns:cc="http://web.resource.org/cc/" xmlns:dc="http://purl.org/dc/elements/1.1/" sodipodi:docname="dice-prepared.svg" sodipodi:docbase="C:\Documents and Settings\Lion\Desktop" inkscape:version="0.42" sodipodi:version="0.32"
	 xmlns="http://www.w3.org/2000/svg" xmlns:xlink="http://www.w3.org/1999/xlink" x="0px" y="0px" viewBox="-265.5 376.4 78 78"
	 style="enable-background:new -265.5 376.4 78 78;" xml:space="preserve">
<style type="text/css">
	.st0{fill:#FFFFFF;stroke:#010101;stroke-width:3;}
	.st1{fill:#010101;stroke:#010101;stroke-width:3;}
</style>
<g id="g2282_3_" transform="matrix(0.500000,0.000000,0.000000,0.500000,66.39284,-89.24748)">
	<path id="rect2284_3_" class="st0" d="M-610.9,934.3h50c27.6,0,50,22.4,50,50v50c0,27.6-22.4,50-50,50h-50c-27.6,0-50-22.4-50-50
		v-50C-660.9,956.7-638.5,934.3-610.9,934.3z"/>
	
		<path id="path2286_3_" sodipodi:cx="325.00000" sodipodi:cy="227.36218" sodipodi:rx="12.500000" sodipodi:ry="12.500000" sodipodi:type="arc" class="st1" d="
		M-609.9,972.8c0,6.9-5.6,12.5-12.5,12.5s-12.5-5.6-12.5-12.5s5.6-12.5,12.5-12.5S-609.9,965.9-609.9,972.8z"/>
	
		<path id="path2288_3_" sodipodi:cx="325.00000" sodipodi:cy="227.36218" sodipodi:rx="12.500000" sodipodi:ry="12.500000" sodipodi:type="arc" class="st1" d="
		M-609.9,1044.8c0,6.9-5.6,12.5-12.5,12.5s-12.5-5.6-12.5-12.5s5.6-12.5,12.5-12.5S-609.9,1037.9-609.9,1044.8z"/>
	
		<path id="path2290_3_" sodipodi:cx="325.00000" sodipodi:cy="227.36218" sodipodi:rx="12.500000" sodipodi:ry="12.500000" sodipodi:type="arc" class="st1" d="
		M-537.9,972.8c0,6.9-5.6,12.5-12.5,12.5s-12.5-5.6-12.5-12.5s5.6-12.5,12.5-12.5S-537.9,965.9-537.9,972.8z"/>
	
		<path id="path2292_3_" sodipodi:cx="325.00000" sodipodi:cy="227.36218" sodipodi:rx="12.500000" sodipodi:ry="12.500000" sodipodi:type="arc" class="st1" d="
		M-537.9,1044.8c0,6.9-5.6,12.5-12.5,12.5s-12.5-5.6-12.5-12.5s5.6-12.5,12.5-12.5S-537.9,1037.9-537.9,1044.8z"/>
</g>
</svg>
